<?xml version="1.0" encoding="UTF-8" standalone="no"?>
<!DOCTYPE svg PUBLIC "-//W3C//DTD SVG 1.1//EN" "http://www.w3.org/Graphics/SVG/1.1/DTD/svg11.dtd">
<svg width="100%" height="100%" viewBox="0 0 144 135" version="1.1" xmlns="http://www.w3.org/2000/svg" xmlns:xlink="http://www.w3.org/1999/xlink" xml:space="preserve" xmlns:serif="http://www.serif.com/" style="fill-rule:evenodd;clip-rule:evenodd;stroke-linejoin:round;stroke-miterlimit:2;">
    <g id="Artboard1">
        <path d="M106.855,99.154L106.855,54.648L123.435,64.22L123.435,134.703L106.855,134.703L106.855,116.401L38.049,116.401L38.049,134.703L21.468,134.703L21.468,64.22L38.049,54.648L38.049,99.154L106.855,99.154ZM54.499,73.173C59.14,73.174 62.909,76.942 62.909,81.582C62.909,86.224 59.14,89.992 54.499,89.992L54.497,89.992C49.856,89.992 46.088,86.224 46.088,81.582C46.088,76.942 49.856,73.174 54.497,73.173L54.499,73.173ZM144.005,41.498L144.005,60.452L72.45,19.147L0,60.972L0,41.827L72,0.002L144.005,41.498Z" style="fill:white;"/>
    </g>
</svg>
